<?xml version="1.0" encoding="iso-8859-1"?>
<!-- Uploaded to: SVG Repo, www.svgrepo.com, Generator: SVG Repo Mixer Tools -->
<svg height="800px" width="800px" version="1.1" id="Layer_1" xmlns="http://www.w3.org/2000/svg" xmlns:xlink="http://www.w3.org/1999/xlink" 
	 viewBox="0 0 508 508" xml:space="preserve">
<path style="fill:#CCCCCC;" d="M170,367.2c-1.6-2-3.2-4-4.8-6c0,0.4-0.4,0.4-0.4,0.8L170,367.2z"/>
<path style="fill:#E9B526;" d="M504,164v-23.6c0-25.2-18.8-44.4-44-44.4H272.4H272l0,0h-0.4l0,0l0,0h-0.4c-0.8,0-1.2-0.4-1.6-1.2
	L226.8,52H55.6C28.8,52,7.2,72,7.2,96v68H504z"/>
<path style="fill:#CCCCCC;" d="M189.6,387.2c0,0,0.4-0.4,0.8-0.4c-1.6-1.2-3.6-2.8-5.2-4L189.6,387.2L189.6,387.2z"/>
<path style="fill:#E8BB85;" d="M460,132h-56l-347.6,0.8c-25.6,0-50,19.2-50,44.4c0,0.4,0,1.2,0,1.6c-0.4,0.4,0.8,1.2,0,1.2
	c0,0,0.8-0.8,0.4-0.8l0.8,224.4c0,25.2,23.2,48,48.4,48h15.6c0-0.4,0.4-1.2,0.8-1.2l55.2-52c0.8-0.8,2-0.8,2.8,0l2.8,2.8l19.2-19.2
	c0,0,0.4,0,0.4-0.4c-1.6-6.4,0-13.6,5.2-18.8l3.6-3.6c0.4-0.4,0.8-0.4,1.6-0.4c-31.6-45.6-26.8-109.2,13.6-149.6
	c15.2-15.2,34-25.6,54.4-30.8c9.2-2.4,18.8-3.6,28.8-3.6c9.6,0,18.8,1.2,28,3.2c20.8,5.2,39.6,15.6,55.2,31.2c46,46,46,120.4,0,166
	c-22,22-51.6,34.4-83.2,34.4c-24.4,0-47.6-7.6-67.2-21.2c0,0.4-0.4,0.8-0.4,1.2l-3.6,3.6c-3.6,3.6-8.8,6-14,6
	c-1.6,0-3.2-0.4-4.8-0.8c0,0,0,0.4-0.4,0.4L150.4,418l2.8,2.8c0.8,0.8,0.8,2,0,2.8l-25.6,28H460c24,0,44-21.6,44-48v-242
	C498,143.6,480.8,132,460,132z"/>
<path style="fill:#F4EFEF;" d="M180,212c-44.4,44.4-44.4,116.4,0,160.4c21.6,21.6,50,33.2,80.4,33.2s58.8-12,80.4-33.2
	c44.4-44.4,44.4-116.4,0-160.4c-21.6-21.6-50-33.2-80.4-33.2S201.2,190.4,180,212z"/>
<path style="fill:#CDEEF9;" d="M196.4,356c17.2,17.2,39.6,26.4,64,26.4c24,0,46.8-9.2,64-26.4c35.2-35.2,35.2-92.4,0-127.6
	c-17.2-17.2-39.6-26.4-64-26.4c-24,0-46.8,9.2-64,26.4c-17.2,17.2-26.4,39.6-26.4,64C170,316.4,179.2,338.8,196.4,356z"/>
<path style="fill:#E8E3E3;" d="M164.8,362l-3.6,3.6c-6.4,6.4-6.4,16.4,0,22.8l2.4,2c3.2,3.2,7.2,4.8,11.2,4.8
	c4.4,0,8.4-1.6,11.2-4.8l3.6-3.6l-4.4-4.4c-2.8-2.4-5.6-4.8-8-7.2c-2.4-2.4-4.8-5.2-7.2-8L164.8,362L164.8,362z"/>
<path style="fill:#CCCCCC;" d="M185.2,382.4L170,367.2c2.4,2.8,4.8,5.2,7.2,8C179.6,377.6,182.4,380,185.2,382.4z"/>
<path style="fill:#AEB1B4;" d="M147.6,415.6l18.4-18.4c-2-0.8-4-2-5.2-3.6l-2.4-2c-1.6-1.6-2.8-3.6-3.6-5.6l-18.4,18.4L147.6,415.6z
	"/>
<g>
	<path style="fill:#CCCCCC;" d="M161.6,392l-2.4-2.4c-0.8-0.8-1.6-2-2.4-3.2l-1.6-1.6l0,0l-0.8,0.8c0.8,2,2,3.6,3.6,5.6l2.4,2
		c1.6,1.6,3.6,2.8,5.2,3.6l0.8-0.8l-1.6-1.6C164,394,162.8,393.2,161.6,392z"/>
	<path style="fill:#CCCCCC;" d="M161.6,392c0.8,0.8,2,1.6,3.2,2.4l-8-8c0.8,1.2,1.6,2.4,2.4,3.2L161.6,392z"/>
</g>
<path style="fill:#E8E3E3;" d="M149.2,422.8l-2.8-2.8l0,0l-14-14.4l0,0l-2.8-2.8L77.2,452h46c0-0.4,0-0.8,0.4-1.2L149.2,422.8z"/>
<path style="fill:#CCCCCC;" d="M76.8,452L76.8,452h46l0,0H76.8z"/>
<path d="M460,460H56.4C27.6,460,0,432.8,0,404V96c0-29.6,29.2-48,56.4-48h172c1.2,0,2,0.4,2.8,1.2L274,92h186
	c28.8,0,48,19.2,48,48.4V404C508,430.8,489.6,460,460,460z M56.4,56C33.2,56,8,71.2,8,96v308c0,24.4,24,48,48.4,48H460
	c24.8,0,40-24.8,40-48V140.4c0-24-16-40.4-40-40.4H272.8c-0.8,0-1.6,0-2.4-0.4c-0.8-0.4-1.2-0.8-1.6-1.2L226.4,56H56.4z"/>
<path d="M4,183.6c-2.4,0-4-1.6-4-4C0,151.2,23.6,128,52.4,128H400c2.4,0,4,1.6,4,4s-1.6,4-4,4H52.4C28,136,8,155.6,8,179.6
	C8,182,6.4,183.6,4,183.6z"/>
<path d="M504,178.4c-2.4,0-4-1.6-4-4c0-24-16-40.4-40-40.4c-2.4,0-4-1.6-4-4s1.6-4,4-4c28.4,0,48,20,48,48.4
	C508,176.8,506.4,178.4,504,178.4z"/>
<path d="M260.4,411.6c-66,0-119.6-53.6-119.6-119.6s53.6-119.6,119.6-119.6S380,226,380,292C379.6,358,326,411.6,260.4,411.6z
	 M260.4,180.8c-61.6,0-111.6,50-111.6,111.6S198.8,404,260.4,404S372,354,372,292.4S321.6,180.8,260.4,180.8z"/>
<path d="M260.4,388.4c-53.2,0-96.4-43.2-96.4-96.4c0-53.2,43.2-96.4,96.4-96.4s96.4,43.2,96.4,96.4
	C356.4,345.2,313.2,388.4,260.4,388.4z M260.4,204c-48.8,0-88.4,39.6-88.4,88.4s39.6,88.4,88.4,88.4s88.4-39.6,88.4-88.4
	C348.4,243.6,308.8,204,260.4,204z"/>
<path d="M174.4,401.6c-6,0-11.6-2.4-15.6-6.4l-2.4-2c-8.8-8.8-8.8-22.8,0-31.2l3.6-3.6c1.6-1.6,4-1.6,5.6,0s1.6,4,0,5.6l-3.6,3.6
	c-5.6,5.6-5.6,14.4,0,20l2.4,2c5.2,5.2,14.8,5.2,20,0l3.6-3.6c1.6-1.6,4-1.6,5.6,0s1.6,4,0,5.6l-3.6,3.6
	C186,399.2,180.4,401.6,174.4,401.6z"/>
<path d="M147.6,422.4L147.6,422.4c-1.2,0-2-0.4-2.8-1.2l-14-14c-1.6-1.6-1.6-4,0-5.6l20.8-20.8c1.6-1.6,4-1.6,5.6,0s1.6,4,0,5.6
	l-18,18l8.4,8.4l18-18c1.6-1.6,4-1.6,5.6,0s1.6,4,0,5.6l-20.8,20.8C149.6,422,148.4,422.4,147.6,422.4z"/>
<path d="M121.6,459.2c-0.8,0-2-0.4-2.8-1.2c-1.6-1.6-1.6-4-0.4-5.6l27.6-29.6l-17.2-17.2L74,457.2c-1.6,1.6-4,1.6-5.6,0
	s-1.6-4,0-5.6l57.6-54.4c1.6-1.6,4-1.6,5.6,0l22.8,22.8c1.6,1.6,1.6,4,0,5.6l-30,32.4C124,458.8,122.8,459.2,121.6,459.2z"/>
<path d="M313.6,242.8c-1.2,0-2-0.4-2.8-1.2c-9.2-9.2-20.4-15.6-32.4-18.8c-2-0.4-3.6-2.8-2.8-4.8c0.4-2,2.8-3.6,4.8-2.8
	c13.6,3.6,26,10.8,36,20.8c1.6,1.6,1.6,4,0,5.6C315.6,242.4,314.4,242.8,313.6,242.8z"/>
</svg>