<?xml version="1.0" encoding="iso-8859-1"?>
<!-- Uploaded to: SVG Repo, www.svgrepo.com, Generator: SVG Repo Mixer Tools -->
<svg version="1.1" id="Layer_1" xmlns="http://www.w3.org/2000/svg" xmlns:xlink="http://www.w3.org/1999/xlink" 
	 viewBox="0 0 504 504" xml:space="preserve">
<path style="fill:#F4EFEF;" d="M345.2,4h-276c-8,0-18,8.4-18,16v464c0,7.6,10.4,16,18,16H434c7.6,0,13.2-8,13.2-16V108L345.2,4z"/>
<path style="fill:#D8D8D8;" d="M344.4,4.8v5.6v71.2c0,13.6,15.2,26.8,28.8,26.8h72.4L344.4,4.8z"/>
<path style="fill:#DF5C4E;" d="M175.2,128.8c-40,0-67.2,32.4-67.2,72s32.8,72,72.4,72c39.6,0,72.4-32,72.4-72h-77.6L175.2,128.8
	L175.2,128.8z"/>
<path style="fill:#FFC52F;" d="M193.2,113.6V186h74C267.2,146,233.2,113.6,193.2,113.6z"/>
<g>
	<rect x="251.2" y="316" style="fill:#33A5D2;" width="28" height="112"/>
	<rect x="371.2" y="344" style="fill:#33A5D2;" width="28" height="84"/>
	<rect x="311.2" y="372" style="fill:#33A5D2;" width="28" height="56"/>
</g>
<path d="M179.2,278c-42,0-77.6-35.6-77.6-78c0-42.8,32-76,73.2-76c2.4,0,4,1.6,4,4v72h73.6c2.4,0,4,1.6,4,4
	C256.8,245.6,222.8,278,179.2,278z M171.2,132c-35.2,2-61.2,30.4-61.2,68c0,38,32,70,69.6,70s67.2-26.8,69.2-62h-73.6
	c-2.4,0-4-1.6-4-4V132z"/>
<path d="M269.2,192h-78c-2.4,0-4-1.6-4-4v-76.4c0-2.4,1.6-4,4-4c42.8,0,82,38.4,82,80.4C273.2,190.4,271.2,192,269.2,192z
	 M195.2,184h70c-2.4-34.4-34.8-66-70-68V184z"/>
<path d="M399.2,168h-88c-2.4,0-4-1.6-4-4s1.6-4,4-4h88c2.4,0,4,1.6,4,4S401.2,168,399.2,168z"/>
<path d="M399.2,208h-88c-2.4,0-4-1.6-4-4s1.6-4,4-4h88c2.4,0,4,1.6,4,4S401.2,208,399.2,208z"/>
<path d="M399.2,248h-88c-2.4,0-4-1.6-4-4s1.6-4,4-4h88c2.4,0,4,1.6,4,4S401.2,248,399.2,248z"/>
<path d="M191.2,344h-88c-2.4,0-4-1.6-4-4s1.6-4,4-4h88c2.4,0,4,1.6,4,4S193.2,344,191.2,344z"/>
<path d="M191.2,384h-88c-2.4,0-4-1.6-4-4s1.6-4,4-4h88c2.4,0,4,1.6,4,4S193.2,384,191.2,384z"/>
<path d="M191.2,424h-88c-2.4,0-4-1.6-4-4s1.6-4,4-4h88c2.4,0,4,1.6,4,4S193.2,424,191.2,424z"/>
<path d="M275.2,436h-28c-2.4,0-4-1.6-4-4V320c0-2.4,1.6-4,4-4h28c2.4,0,4,1.6,4,4v112C279.2,434.4,277.2,436,275.2,436z M251.2,428
	h20V324h-20V428z"/>
<path d="M395.2,436h-28c-2.4,0-4-1.6-4-4v-84c0-2.4,1.6-4,4-4h28c2.4,0,4,1.6,4,4v84C399.2,434.4,397.2,436,395.2,436z M371.2,428
	h20v-76h-20V428z"/>
<path d="M335.2,436h-28c-2.4,0-4-1.6-4-4v-56c0-2.4,1.6-4,4-4h28c2.4,0,4,1.6,4,4v56C339.2,434.4,337.2,436,335.2,436z M311.2,428
	h20v-48h-20V428z"/>
<path d="M275.2,364h-24c-2.4,0-4-1.6-4-4s1.6-4,4-4h24c2.4,0,4,1.6,4,4S277.2,364,275.2,364z"/>
<path d="M335.2,416h-24c-2.4,0-4-1.6-4-4s1.6-4,4-4h24c2.4,0,4,1.6,4,4S337.2,416,335.2,416z"/>
<path d="M395.2,400h-24c-2.4,0-4-1.6-4-4s1.6-4,4-4h24c2.4,0,4,1.6,4,4S397.2,400,395.2,400z"/>
<path d="M432.4,504H71.6c-10.8,0-19.2-8.8-19.2-20V20c0-11.2,8.4-20,19.2-20h272c1.2,0,2,0.4,2.8,1.2l105.2,104
	c0.8,0.8,1.2,1.6,1.2,2.8v376C452.8,495.2,443.6,504,432.4,504z M71.6,8c-6.4,0-11.2,5.2-11.2,12v464c0,6.8,4.8,12,11.2,12h360.8
	c6.8,0,12.4-5.6,12.4-12V109.6L342,8H71.6z"/>
<path d="M412.8,112h-38.4c-16.8,0-33.6-17.6-33.6-34.8V8c0-2.4,1.6-4,4-4s4,1.6,4,4v69.2c0,12.8,13.6,26.8,25.6,26.8h38.4
	c2.4,0,4,1.6,4,4S414.8,112,412.8,112z"/>
</svg>