<?xml version="1.0" encoding="iso-8859-1"?>
<!-- Uploaded to: SVG Repo, www.svgrepo.com, Generator: SVG Repo Mixer Tools -->
<svg height="800px" width="800px" version="1.1" id="Layer_1" xmlns="http://www.w3.org/2000/svg" xmlns:xlink="http://www.w3.org/1999/xlink" 
	 viewBox="0 0 504 504" xml:space="preserve">
<path style="fill:#F4EFEF;" d="M348.2,4h-276c-8,0-18,8.4-18,16v464c0,7.6,10.4,16,18,16H437c7.6,0,13.2-8,13.2-16V108L348.2,4z"/>
<path style="fill:#D8D8D8;" d="M343,8.4V10v71.2c0,13.6,15.2,26.8,28.8,26.8h72.4L343,8.4z"/>
<path d="M408.2,140h-312c-2.4,0-4-1.6-4-4s1.6-4,4-4h312c2.4,0,4,1.6,4,4S410.6,140,408.2,140z"/>
<path d="M156.2,180h-60c-2.4,0-4-1.6-4-4s1.6-4,4-4h60c2.4,0,4,1.6,4,4S158.6,180,156.2,180z"/>
<path d="M408.2,180h-216c-2.4,0-4-1.6-4-4s1.6-4,4-4h216c2.4,0,4,1.6,4,4S410.6,180,408.2,180z"/>
<path d="M408.2,220h-60c-2.4,0-4-1.6-4-4s1.6-4,4-4h60c2.4,0,4,1.6,4,4S410.6,220,408.2,220z"/>
<path d="M312.2,220h-216c-2.4,0-4-1.6-4-4s1.6-4,4-4h216c2.4,0,4,1.6,4,4S314.6,220,312.2,220z"/>
<path d="M408.2,260h-312c-2.4,0-4-1.6-4-4s1.6-4,4-4h312c2.4,0,4,1.6,4,4S410.6,260,408.2,260z"/>
<path d="M408.2,380h-312c-2.4,0-4-1.6-4-4s1.6-4,4-4h312c2.4,0,4,1.6,4,4S410.6,380,408.2,380z"/>
<path d="M156.2,300h-60c-2.4,0-4-1.6-4-4s1.6-4,4-4h60c2.4,0,4,1.6,4,4S158.6,300,156.2,300z"/>
<path d="M408.2,300h-216c-2.4,0-4-1.6-4-4s1.6-4,4-4h216c2.4,0,4,1.6,4,4S410.6,300,408.2,300z"/>
<path d="M408.2,340h-60c-2.4,0-4-1.6-4-4s1.6-4,4-4h60c2.4,0,4,1.6,4,4S410.6,340,408.2,340z"/>
<path d="M312.2,340h-216c-2.4,0-4-1.6-4-4s1.6-4,4-4h216c2.4,0,4,1.6,4,4S314.6,340,312.2,340z"/>
<path d="M156.2,420h-60c-2.4,0-4-1.6-4-4s1.6-4,4-4h60c2.4,0,4,1.6,4,4S158.6,420,156.2,420z"/>
<path d="M408.2,420h-216c-2.4,0-4-1.6-4-4s1.6-4,4-4h216c2.4,0,4,1.6,4,4S410.6,420,408.2,420z"/>
<path d="M431.8,504H71c-10.8,0-19.2-8.8-19.2-20V20C51.8,8.8,60.2,0,71,0h272c1.2,0,2,0.4,2.8,1.2l105.2,104
	c0.8,0.8,1.2,1.6,1.2,2.8v376C452.2,495.2,443,504,431.8,504z M71,8c-6.4,0-11.2,5.2-11.2,12v464c0,6.8,4.8,12,11.2,12h360.8
	c6.8,0,12.4-5.6,12.4-12V109.6L341.4,8H71z"/>
<path d="M412.2,112h-38.4c-16.8,0-33.6-17.6-33.6-34.8V8c0-2.4,1.6-4,4-4s4,1.6,4,4v69.2c0,12.8,13.6,26.8,25.6,26.8h38.4
	c2.4,0,4,1.6,4,4S414.6,112,412.2,112z"/>
</svg>