<svg xmlns="http://www.w3.org/2000/svg" viewBox="0 0 72 72"><path fill="#36c684" d="M50 61H22a6 6 0 01-6-6V22l9-11h25a6 6 0 016 6v38a6 6 0 01-6 6z"></path><path fill="#95e5bd" d="M25 20.556A1.444 1.444 0 0123.556 22H16l9-11z"></path><path fill="#fff" d="M42 31H30a3.003 3.003 0 00-3 3v11a3.003 3.003 0 003 3h12a3.003 3.003 0 003-3V34a3.003 3.003 0 00-3-3zm-13 7h6v3h-6zm8 0h6v3h-6zm6-4v2h-6v-3h5a1.001 1.001 0 011 1zm-13-1h5v3h-6v-2a1.001 1.001 0 011-1zm-1 12v-2h6v3h-5a1.001 1.001 0 01-1-1zm13 1h-5v-3h6v2a1.001 1.001 0 01-1 1z"></path></svg>