<svg xmlns="http://www.w3.org/2000/svg" viewBox="0 0 72 72"><path fill="#f25168" d="M50 61H22a6 6 0 01-6-6V22l9-11h25a6 6 0 016 6v38a6 6 0 01-6 6z"></path><path fill="#ff9fb6" d="M25 20.556A1.444 1.444 0 0123.556 22H16l9-11z"></path><path fill="#fff" d="M44.14 46H27.86A1.86 1.86 0 0126 44.14v-9.28A1.86 1.86 0 0127.86 33h16.28A1.86 1.86 0 0146 34.86v9.28A1.86 1.86 0 0144.14 46zm-14.995-2h13.71A1.145 1.145 0 0044 42.855v-6.71A1.145 1.145 0 0042.855 35h-13.71A1.145 1.145 0 0028 36.145v6.71A1.145 1.145 0 0029.145 44z"></path><path fill="#fff" d="M36.422 34.268a.711.711 0 01-.505-.21l-2.143-2.142a.714.714 0 011.01-1.01l2.143 2.143a.714.714 0 01-.505 1.22z"></path><path fill="#fff" d="M36.422 34.268a.714.714 0 01-.505-1.22l2.143-2.142a.714.714 0 011.01 1.01l-2.143 2.143a.711.711 0 01-.505.209zM32.136 49.268a.705.705 0 01-.367-.102.715.715 0 01-.245-.98l2.143-3.571a.714.714 0 011.225.735l-2.143 3.57a.714.714 0 01-.613.348zM40.708 49.268a.714.714 0 01-.613-.346l-2.142-3.572a.714.714 0 011.225-.735l2.142 3.572a.714.714 0 01-.612 1.081zM35.12 37H30.9a.5.5 0 110-1h4.22a.5.5 0 110 1zM41.976 43h-4.429a.506.506 0 110-1.006h4.429a.506.506 0 110 1.006zM38.14 40h-4.163a.5.5 0 110-1h4.163a.5.5 0 110 1z"></path></svg>