<svg xmlns="http://www.w3.org/2000/svg" viewBox="0 0 72 72"><path fill="#7e95c4" d="M50 61H22a6 6 0 01-6-6V22l9-11h25a6 6 0 016 6v38a6 6 0 01-6 6z"></path><path fill="#b7ccea" d="M25 20.556A1.444 1.444 0 0123.556 22H16l9-11z"></path><rect width="18" height="2" x="27" y="31" fill="#fff" rx="1" ry="1"></rect><rect width="18" height="2" x="27" y="35" fill="#fff" rx="1" ry="1"></rect><rect width="18" height="2" x="27" y="39" fill="#fff" rx="1" ry="1"></rect><rect width="14" height="2" x="27" y="43" fill="#fff" rx="1" ry="1"></rect><rect width="8" height="2" x="27" y="47" fill="#fff" rx="1" ry="1"></rect></svg>