<svg xmlns="http://www.w3.org/2000/svg" viewBox="0 0 72 72"><path fill="#f74141" d="M50 61H22a6 6 0 01-6-6V22l9-11h25a6 6 0 016 6v38a6 6 0 01-6 6z"></path><path fill="#ffa9a9" d="M25 20.556A1.444 1.444 0 0123.556 22H16l9-11z"></path><path fill="#fff" d="M46 46.5v-13a3.504 3.504 0 00-3.5-3.5h-13a3.504 3.504 0 00-3.5 3.5v13a3.504 3.504 0 003.5 3.5h13a3.504 3.504 0 003.5-3.5zM40 45v3h-3v-3zm-3-2v-6h7v6zm0-8v-3h3v3zm-2-3v3h-3v-3zm0 5v6h-7v-6zm0 8v3h-3v-3zm7.5 3H42v-3h2v1.5a1.502 1.502 0 01-1.5 1.5zM44 33.5V35h-2v-3h.5a1.502 1.502 0 011.5 1.5zM29.5 32h.5v3h-2v-1.5a1.502 1.502 0 011.5-1.5zM28 46.5V45h2v3h-.5a1.502 1.502 0 01-1.5-1.5z"></path></svg>