<svg xmlns="http://www.w3.org/2000/svg" viewBox="0 0 72 72"><rect width="40" height="44" x="16" y="14" fill="#7e95c4" rx="6" ry="6"></rect><rect width="8" height="2" x="32" y="17" fill="#fff" rx="1" ry="1"></rect><rect width="8" height="2" x="32" y="22" fill="#fff" rx="1" ry="1"></rect><rect width="8" height="2" x="32" y="27" fill="#fff" rx="1" ry="1"></rect><rect width="8" height="2" x="32" y="32" fill="#fff" rx="1" ry="1"></rect><rect width="8" height="2" x="32" y="37" fill="#fff" rx="1" ry="1"></rect><path fill="#fff" d="M35 14h2v29a1 1 0 01-1 1 1 1 0 01-1-1V14z"></path><path fill="#fff" d="M38.002 42h-4.004A1.998 1.998 0 0032 43.998v2.004A1.998 1.998 0 0033.998 48h4.004A1.998 1.998 0 0040 46.002v-2.004A1.998 1.998 0 0038.002 42zm-.005 4H34v-2h4z"></path></svg>