<?xml version="1.0" encoding="iso-8859-1"?>
<!-- Uploaded to: SVG Repo, www.svgrepo.com, Generator: SVG Repo Mixer Tools -->
<svg height="800px" width="800px" version="1.1" id="Layer_1" xmlns="http://www.w3.org/2000/svg" xmlns:xlink="http://www.w3.org/1999/xlink" 
	 viewBox="0 0 504 504" xml:space="preserve">
<g>
	<path style="fill:#CCCCCC;" d="M168.2,178.4c0-0.4,0-0.4,0-0.8C168.6,177.6,168.2,178,168.2,178.4z"/>
	<path style="fill:#CCCCCC;" d="M167.8,185.2c0-1.6,0-3.2,0.4-4.4C167.8,182,167.8,183.6,167.8,185.2z"/>
</g>
<path style="fill:#F4EFEF;" d="M343.8,2h-272c-8,0-18,8.4-18,16v464c0,7.6,10.4,16,18,16h364.8c7.6,0,13.2-8,13.2-16V106L343.8,2z"
	/>
<path style="fill:#D8D8D8;" d="M344.2,8.4V10v71.2c0,13.6,15.2,26.8,28.8,26.8h72.4L344.2,8.4z"/>
<path style="fill:#54B265;" d="M202.2,400.4c-17.2,12-32.8,4.4-32.8-16.8V185.2c0-21.2,15.2-28.8,32.8-16.8l140,94.8
	c17.6,12,17.2,31.6-0.4,43.6L202.2,400.4z"/>
<path d="M184.2,410c-3.6,0-7.2-0.8-10-2.4c-8-4-12.4-12.8-12.4-24V185.2c0-11.2,4.4-20,12.4-24c8.4-4.4,18.8-2.8,28.8,4l140.8,94.4
	c9.2,6.4,14.4,15.2,14.4,24.8c0,9.6-5.6,19.2-15.2,25.6l-140,94C196.6,408,190.2,410,184.2,410z M184.2,166.4
	c-2.4,0-4.4,0.4-6.4,1.6c-5.2,2.8-8,8.8-8,17.2v198.4c0,8.4,2.8,14.4,8,17.2c5.6,2.8,12.8,1.6,20.4-3.6l0,0l140-94
	c7.6-5.2,11.6-12,11.6-19.2c0-6.8-4-13.2-10.8-18l-140.8-94.4C193.4,168,188.6,166.4,184.2,166.4z"/>
<path d="M431.8,504H71c-10.8,0-19.2-8.8-19.2-20V20C51.8,8.8,60.2,0,71,0h272c1.2,0,2,0.4,2.8,1.2l105.2,104
	c0.8,0.8,1.2,1.6,1.2,2.8v376C452.2,495.2,443,504,431.8,504z M71,8c-6.4,0-11.2,5.2-11.2,12v464c0,6.8,4.8,12,11.2,12h360.8
	c6.8,0,12.4-5.6,12.4-12V109.6L341.4,8H71z"/>
<path d="M412.2,112h-38.4c-16.8,0-33.6-17.6-33.6-34.8V8c0-2.4,1.6-4,4-4s4,1.6,4,4v69.2c0,12.8,13.6,26.8,25.6,26.8h38.4
	c2.4,0,4,1.6,4,4S414.6,112,412.2,112z"/>
</svg>